<?xml version="1.0" standalone="no"?>
<!DOCTYPE svg PUBLIC "-//W3C//DTD SVG 20010904//EN"
 "http://www.w3.org/TR/2001/REC-SVG-20010904/DTD/svg10.dtd">
<svg version="1.0" xmlns="http://www.w3.org/2000/svg"
 width="1024.000000pt" height="1024.000000pt" viewBox="0 0 1024.000000 1024.000000"
 preserveAspectRatio="xMidYMid meet">
<metadata>
Created by potrace 1.11, written by Peter Selinger 2001-2013
</metadata>
<g transform="translate(0.000000,1024.000000) scale(0.100000,-0.100000)"
fill="#000000" stroke="none">
<path d="M1750 9767 c-3 -3 -34 -7 -70 -10 -178 -16 -397 -97 -563 -209 -83
-56 -221 -197 -278 -283 -121 -183 -207 -423 -245 -684 -4 -25 -8 -54 -10 -65
-2 -10 -6 -44 -9 -75 -3 -31 -8 -74 -10 -96 -5 -38 -9 -107 -20 -280 -2 -44
-7 -150 -10 -235 -3 -85 -8 -187 -10 -226 -8 -131 -15 -298 -20 -449 -15 -454
-15 -478 -30 -1315 -13 -762 -18 -930 -30 -1115 -10 -132 -10 -138 -21 -335
-11 -190 -12 -651 -1 -780 9 -126 41 -312 73 -430 120 -447 399 -781 784 -940
84 -35 241 -78 310 -86 25 -2 56 -7 70 -9 14 -3 133 -7 265 -10 132 -3 341 -7
465 -10 124 -3 331 -7 460 -10 129 -3 332 -7 450 -10 118 -3 325 -7 460 -10
500 -12 599 -14 775 -20 99 -4 196 -8 215 -10 19 -2 94 -6 165 -10 72 -3 144
-8 160 -10 17 -2 91 -7 165 -10 74 -3 158 -8 185 -10 86 -7 516 -22 691 -24
l50 -1 14 -81 c17 -106 61 -274 98 -374 57 -155 189 -391 265 -475 8 -8 32
-40 54 -70 83 -113 261 -273 428 -385 126 -84 356 -196 453 -221 9 -2 67 -17
127 -34 61 -16 164 -37 230 -46 133 -18 365 -24 435 -11 25 4 68 10 95 13 115
12 373 82 460 124 25 12 76 32 90 35 6 2 42 21 81 44 39 22 74 41 77 41 9 0
166 108 222 153 79 63 252 236 303 302 26 33 56 71 68 84 12 13 28 35 36 50 7
14 28 47 46 74 19 26 31 47 26 47 -4 0 0 8 8 17 53 61 173 378 202 533 9 47
19 96 22 110 29 128 28 473 -3 625 -47 227 -69 309 -104 377 -5 10 -9 22 -9
28 0 6 -18 48 -40 95 -22 47 -40 87 -40 90 0 2 -22 37 -49 77 -26 40 -60 91
-73 113 -14 22 -34 49 -45 60 -10 11 -37 45 -60 75 -42 58 -255 267 -309 304
-17 11 -73 50 -125 84 -52 35 -95 65 -97 67 -2 2 40 92 94 201 54 110 97 202
96 206 -1 5 2 8 6 8 14 0 35 132 29 175 -10 66 -34 134 -60 168 -22 29 -173
180 -334 334 -35 32 -63 62 -63 66 0 5 84 105 165 196 17 18 39 43 50 56 11
12 38 44 60 70 22 26 48 57 57 67 28 33 56 99 69 164 20 97 -16 217 -86 290
-5 6 -44 48 -85 93 -85 94 -121 132 -267 284 l-104 107 22 38 c13 20 49 77 81
125 32 48 58 90 58 93 0 2 16 27 35 55 37 54 66 136 70 201 3 46 -31 191 -45
196 -6 2 -10 7 -10 11 0 12 -605 613 -632 627 -45 23 -158 41 -212 33 -27 -5
-51 -7 -53 -6 -1 2 -5 32 -8 67 -14 157 -44 354 -79 515 -123 560 -180 711
-333 884 -41 46 -73 75 -175 154 -50 40 -249 127 -353 156 -118 33 -143 38
-220 47 -27 3 -52 7 -55 9 -34 21 -804 26 -1525 10 -495 -10 -1000 -11 -1180
-1 -77 4 -171 9 -210 11 -244 13 -305 17 -350 20 -27 2 -95 7 -150 10 -55 3
-127 8 -160 10 -33 2 -100 6 -150 9 -49 3 -121 8 -160 11 -38 3 -108 7 -155
11 -47 3 -96 7 -110 9 -14 2 -56 7 -95 10 -38 3 -83 8 -100 10 -16 2 -68 7
-115 10 -47 4 -96 9 -110 12 -33 6 -444 15 -450 10z m4755 -240 c17 -3 57 -8
90 -12 113 -11 260 -46 387 -91 322 -113 549 -353 642 -678 33 -112 38 -140
51 -286 10 -106 5 -453 -9 -660 -5 -65 -16 -239 -20 -292 -1 -10 -80 -97 -177
-195 -97 -98 -182 -189 -189 -203 -25 -47 -47 -156 -49 -240 -1 -46 -4 -87 -6
-90 -1 -3 -6 -63 -9 -135 -4 -71 -9 -146 -11 -165 -2 -19 -7 -92 -10 -162 -4
-70 -8 -139 -10 -155 -4 -34 -17 -218 -20 -288 -5 -104 -15 -252 -20 -295 -2
-25 -7 -97 -10 -160 -6 -112 -10 -172 -20 -295 -3 -33 -7 -104 -10 -159 -5
-96 -10 -171 -20 -291 -3 -33 -7 -114 -10 -180 -3 -66 -8 -136 -10 -155 -3
-19 -7 -73 -10 -120 -5 -91 -12 -204 -20 -310 -6 -71 -1 -65 -105 -140 -34
-24 -71 -53 -83 -63 -12 -11 -38 -31 -57 -46 -36 -27 -108 -99 -149 -147 -13
-16 -42 -49 -63 -74 -51 -59 -46 -51 -118 -166 -60 -94 -170 -308 -170 -329 0
-6 -27 -11 -62 -12 -74 -1 -521 -12 -763 -18 -93 -2 -287 -7 -430 -10 -143 -3
-341 -8 -440 -10 -99 -2 -319 -7 -490 -10 -170 -4 -375 -8 -455 -10 -80 -2
-323 -6 -540 -10 -217 -4 -420 -8 -450 -10 -81 -6 -536 -6 -600 -1 -260 21
-423 63 -558 146 -185 114 -312 288 -368 504 -21 80 -24 94 -29 141 -3 22 -7
50 -9 63 -15 76 -37 1134 -24 1147 2 3 4 -6 4 -18 2 -119 42 -314 91 -436 49
-124 138 -284 187 -337 6 -7 26 -30 44 -52 52 -64 156 -161 240 -225 140 -105
328 -188 527 -232 112 -25 136 -29 230 -41 22 -3 49 -7 61 -9 126 -27 862 -27
1099 -1 17 2 59 7 95 10 59 7 115 14 224 32 62 9 75 12 165 38 47 13 98 26
113 30 14 3 33 9 42 12 12 5 16 0 16 -20 0 -80 93 -252 200 -369 81 -88 245
-192 337 -213 56 -12 278 -11 343 2 85 18 194 73 250 127 127 121 255 312 295
437 64 201 277 637 492 1005 19 33 45 78 58 100 13 22 89 155 170 295 187 325
269 494 339 697 96 282 199 653 210 758 3 28 8 77 11 110 10 107 23 212 29
242 4 19 -1 22 -62 32 -195 33 -356 33 -513 1 -57 -12 -111 -23 -119 -25 -42
-8 -356 -93 -523 -141 -163 -47 -374 -118 -544 -182 -35 -13 -60 -16 -93 -11
-53 8 -382 4 -425 -5 -16 -4 -65 -13 -108 -22 -187 -37 -329 -106 -433 -209
-223 -220 -223 -545 -1 -773 95 -98 196 -155 313 -178 69 -13 213 -12 278 1
149 31 240 61 531 174 118 46 182 66 186 59 26 -42 -95 -303 -216 -464 -71
-94 -182 -203 -280 -274 -78 -56 -264 -159 -315 -175 -14 -4 -38 -13 -55 -20
-108 -48 -381 -112 -592 -140 -163 -21 -253 -29 -428 -40 -49 -3 -112 -8 -140
-10 -293 -24 -618 -24 -735 0 -14 3 -38 8 -55 10 -164 29 -354 146 -452 278
-89 121 -120 206 -120 327 0 168 67 326 231 545 33 44 62 82 65 85 3 3 31 34
61 70 30 35 62 72 70 81 31 33 98 108 205 229 273 311 510 554 713 732 172
151 185 161 327 267 299 224 590 394 853 500 28 12 74 30 100 41 351 141 802
287 1787 577 105 30 216 64 247 74 54 18 267 75 316 85 94 19 185 79 198 131
23 89 -59 283 -165 390 -120 123 -211 148 -536 148 -220 -1 -312 -10 -570 -60
-218 -42 -604 -178 -940 -330 -176 -80 -1029 -510 -1225 -617 -25 -14 -72 -40
-105 -58 -33 -18 -67 -39 -76 -46 -8 -8 -19 -14 -23 -14 -10 0 -262 -160 -391
-248 -549 -376 -1156 -890 -1425 -1207 -24 -27 -46 -52 -49 -55 -3 -3 -24 -27
-46 -55 -21 -27 -42 -52 -45 -55 -29 -28 -184 -252 -253 -368 -171 -286 -286
-631 -290 -869 0 -7 -4 -13 -8 -13 -4 0 -8 53 -9 118 -1 64 -3 158 -5 207 -5
108 -14 561 -20 1000 -15 999 -22 1341 -30 1470 -10 150 -12 588 -4 665 30
264 117 510 231 654 124 157 338 276 558 311 19 3 46 7 60 10 56 10 180 15
485 21 363 6 415 8 955 29 210 8 630 16 1080 20 722 7 1094 18 1350 40 25 3
101 7 170 11 69 3 126 7 128 9 5 5 456 -3 487 -8z m-5428 -4582 c0 -8 -4 -15
-9 -15 -10 0 -11 14 -1 23 9 10 10 9 10 -8z m7157 -3149 c48 -24 156 -119 156
-139 0 -4 9 -27 20 -50 15 -30 21 -63 21 -119 1 -73 -5 -93 -44 -177 -21 -42
-88 -100 -153 -131 -104 -49 -209 -42 -317 22 -65 38 -96 72 -133 145 -25 50
-29 69 -29 143 0 70 5 94 25 138 14 28 28 52 32 52 5 0 8 5 8 11 0 30 120 111
194 130 56 15 165 2 220 -25z"/>
</g>
</svg>
